<svg xmlns="http://www.w3.org/2000/svg" viewBox="0 0 243.47 256"><title>light</title><rect x="102.19" y="50.96" width="38.52" height="27.24" rx="1.62" fill="#fff"/><rect x="102.07" y="90.39" width="38.76" height="114.55" rx="1.62" fill="#fff"/><rect y="50.96" width="38.76" height="115.66" rx="1.62" fill="#fff"/><rect x="51.29" y="50.96" width="38.76" height="153.98" rx="1.62" fill="#fff"/><path d="M203.08,217.24H40.38a1.63,1.63,0,0,1-1.62-1.62V180.57a1.63,1.63,0,0,0-1.62-1.63H1.62A1.63,1.63,0,0,0,0,180.57V256H241.84a1.63,1.63,0,0,0,1.63-1.62V180.57a1.63,1.63,0,0,0-1.63-1.63H206.33a1.62,1.62,0,0,0-1.62,1.63v35.05A1.63,1.63,0,0,1,203.08,217.24Z" fill="#fff"/><rect x="204.71" y="51.06" width="38.76" height="115.58" rx="1.62" fill="#fff"/><rect x="153.18" y="51.06" width="38.76" height="153.88" rx="1.62" fill="#fff"/><rect width="243.47" height="38.76" rx="1.62" fill="#fff"/></svg>