<svg xmlns="http://www.w3.org/2000/svg" viewBox="0 0 3165.65 335.05"><title>qip</title><path d="M951.77,178.57H912.13v55.56h39.64c27.94,0,39.31-10.4,39.31-28.27S979.06,178.57,951.77,178.57Z" fill="none"/><path d="M2149.35,100.92h-33.14v66.61h33.14c27,0,40.94-13,40.94-33.47S2176.32,100.92,2149.35,100.92Z" fill="none"/><path d="M2359.23,101.57c-34.44,0-62.7,25.34-62.7,65.63s28.26,66.28,62.7,66.28,62.71-26,62.71-66.28S2393.67,101.57,2359.23,101.57Z" fill="none"/><path d="M531.67,101.57c-34.44,0-62.71,25.34-62.71,65.63s28.27,66.28,62.71,66.28a57.57,57.57,0,0,0,19.82-3.25l-31.84-35.09h48.73l13,14c8.12-10.72,13-25,13-41.91C594.38,126.91,566.11,101.57,531.67,101.57Z" fill="none"/><path d="M977.76,121.71c0-13.64-7.15-20.79-27.29-20.79H912.13v41.91h38.66C969.64,142.83,977.76,134.71,977.76,121.71Z" fill="none"/><path d="M1855.32,101.57c-34.44,0-62.71,25.34-62.71,65.63s28.27,66.28,62.71,66.28,62.7-26,62.7-66.28S1889.76,101.57,1855.32,101.57Z" fill="none"/><path d="M2563.92,100.92h-33.14V159.4h33.14c27,0,40.94-11.37,40.94-29.24S2590.89,100.92,2563.92,100.92Z" fill="none"/><polygon points="2881.35 191.57 2927.49 191.57 2904.42 127.89 2881.35 191.57" fill="none"/><path d="M635,167.53c0-61.09-46.46-104.95-103.32-104.95s-103.32,43.86-103.32,105,46.46,104.94,103.32,104.94a102.61,102.61,0,0,0,47.76-11.37l7.8,8.77H636L608.35,239C624.92,220.81,635,196.12,635,167.53Zm-53.61,41.58-13-14H519.65l31.84,35.09a57.57,57.57,0,0,1-19.82,3.25c-34.44,0-62.71-26-62.71-66.28s28.27-65.63,62.71-65.63,62.71,25.34,62.71,65.63C594.38,184.1,589.5,198.39,581.38,209.11Z"/><path d="M804.91,172.07c0,47.77-18.84,63-50,63s-50.68-15.27-50.68-63V65.18h-39V178.9c0,57.51,34.44,93.57,89.35,93.57s89.35-36.06,89.35-93.57V65.18h-39Z"/><path d="M1001.8,157.13c11.37-7.8,16.57-20.47,16.57-39.32,0-29.89-24.69-52.63-63.35-52.63H873.14V269.87h80.25c49.06,0,78.3-23.07,78.3-64C1031.69,182.47,1022,166.23,1001.8,157.13Zm-89.67-56.21h38.34c20.14,0,27.29,7.15,27.29,20.79,0,13-8.12,21.12-27,21.12H912.13Zm39.64,133.21H912.13V178.57h39.64c27.29,0,39.31,9.42,39.31,27.29S979.71,234.13,951.77,234.13Z"/><rect x="1060.94" y="65.18" width="38.99" height="204.69"/><path d="M1232.48,233.48c-34.44,0-62.7-26-62.7-66.28s28.26-65.63,62.7-65.63c29.25,0,49.71,15.27,58.49,40.94h42.56c-8.12-49.06-46.46-79.93-101-79.93-56.85,0-103.32,43.86-103.32,105s46.47,104.94,103.32,104.94c52,0,96.5-32.49,101.7-81.23h-42.24C1286.09,217.24,1263.35,233.48,1232.48,233.48Z"/><rect x="1452.76" y="65.18" width="38.99" height="204.69"/><path d="M1624.31,233.48c-34.44,0-62.71-26-62.71-66.28s28.27-65.63,62.71-65.63c29.24,0,49.71,15.27,58.48,40.94h42.57c-8.13-49.06-46.47-79.93-101-79.93-56.86,0-103.32,43.86-103.32,105s46.46,104.94,103.32,104.94c52,0,96.5-32.49,101.69-81.23h-42.23C1677.92,217.24,1655.18,233.48,1624.31,233.48Z"/><path d="M1855.32,62.58c-56.86,0-103.32,43.86-103.32,105s46.46,104.94,103.32,104.94,103.32-43.86,103.32-104.94S1912.18,62.58,1855.32,62.58Zm0,170.9c-34.44,0-62.71-26-62.71-66.28s28.27-65.63,62.71-65.63,62.7,25.34,62.7,65.63S1889.76,233.48,1855.32,233.48Z"/><path d="M2151,65.18h-73.75V269.87h39v-66.6H2151c48.09,0,79.93-27.62,79.93-69.21C2230.9,93.77,2200,65.18,2151,65.18Zm-1.62,102.35h-33.14V100.92h33.14c27,0,40.94,12.67,40.94,33.14S2176.32,167.53,2149.35,167.53Z"/><path d="M2359.23,62.58c-56.85,0-103.32,43.86-103.32,105s46.47,104.94,103.32,104.94,103.32-43.86,103.32-104.94S2416.09,62.58,2359.23,62.58Zm0,170.9c-34.44,0-62.7-26-62.7-66.28s28.26-65.63,62.7-65.63,62.71,25.34,62.71,65.63S2393.67,233.48,2359.23,233.48Z"/><path d="M2645.47,130.16c0-38-30.86-65-79.92-65h-73.76V269.87h39V195.14h24L2598,269.87h45.49l-45.82-79.28C2627.28,181.5,2645.47,159.73,2645.47,130.16Zm-81.55,29.24h-33.14V100.92h33.14c27,0,40.94,11.37,40.94,29.24S2590.89,159.4,2563.92,159.4Z"/><polygon points="2817.02 65.18 2664.97 65.18 2664.97 100.92 2721.5 100.92 2721.5 269.87 2760.49 269.87 2760.49 100.92 2817.02 100.92 2817.02 65.18"/><path d="M2884.93,65.18l-74.41,204.69h42.24l15.6-42.56h72.13l15.59,42.56h42.24l-74.4-204.69Zm-3.58,126.39,23.07-63.68,23.07,63.68Z"/><polygon points="3066.55 234.13 3066.55 65.18 3027.56 65.18 3027.56 269.87 3165.64 269.87 3165.64 234.13 3066.55 234.13"/><rect x="133.74" y="66.7" width="50.42" height="35.65" rx="2.13"/><rect x="133.59" y="118.3" width="50.73" height="149.92" rx="2.13"/><rect y="66.7" width="50.73" height="151.37" rx="2.13"/><rect x="67.13" y="66.7" width="50.73" height="201.52" rx="2.13"/><path d="M316.52,234.2H270.05a2.13,2.13,0,0,0-2.13,2.13V282.2a2.12,2.12,0,0,1-2.13,2.12H52.85a2.12,2.12,0,0,1-2.12-2.12V236.33a2.13,2.13,0,0,0-2.13-2.13H2.13A2.13,2.13,0,0,0,0,236.33v98.72H316.52a2.13,2.13,0,0,0,2.13-2.13V236.33A2.13,2.13,0,0,0,316.52,234.2Z"/><rect x="267.92" y="66.83" width="50.73" height="151.27" rx="2.13"/><rect x="200.48" y="66.83" width="50.73" height="201.4" rx="2.13"/><rect width="318.65" height="50.73" rx="2.13"/></svg>