<svg xmlns="http://www.w3.org/2000/svg" viewBox="0 0 274.38 274.38"><title>qip</title><path d="M137.19,20A117.19,117.19,0,1,0,254.38,137.19,117.32,117.32,0,0,0,137.19,20ZM90.25,156.46a2.76,2.76,0,0,1-2.76,2.76H71a2.76,2.76,0,0,1-2.75-2.76V95.89A2.75,2.75,0,0,1,71,93.14H87.49a2.75,2.75,0,0,1,2.76,2.75Zm29.37,22a2.76,2.76,0,0,1-2.76,2.75H100.34a2.75,2.75,0,0,1-2.75-2.75V95.89a2.75,2.75,0,0,1,2.75-2.75h16.52a2.76,2.76,0,0,1,2.76,2.75Zm29-11a2.75,2.75,0,0,1-2.75,2.75H129.37a2.76,2.76,0,0,1-2.76-2.75V106.9a2.76,2.76,0,0,1,2.76-2.75h16.52a2.75,2.75,0,0,1,2.75,2.75Zm28.15,11a2.75,2.75,0,0,1-2.75,2.75H157.52a2.76,2.76,0,0,1-2.76-2.75V95.89a2.76,2.76,0,0,1,2.76-2.75H174a2.75,2.75,0,0,1,2.75,2.75Zm29.37-22a2.76,2.76,0,0,1-2.75,2.76H186.89a2.76,2.76,0,0,1-2.76-2.76V95.89a2.75,2.75,0,0,1,2.76-2.75h16.52a2.75,2.75,0,0,1,2.75,2.75Z" fill="#fff"/><rect x="97.59" y="93.14" width="22.03" height="88.11" rx="2.75" fill="#fff"/><rect x="68.22" y="93.14" width="22.03" height="66.08" rx="2.75" fill="#fff"/><rect x="154.76" y="93.14" width="22.03" height="88.11" rx="2.75" fill="#fff"/><rect x="184.13" y="93.14" width="22.03" height="66.08" rx="2.75" fill="#fff"/><rect x="126.61" y="104.15" width="22.03" height="66.08" rx="2.75" fill="#fff"/><path d="M137.19,0C61.54,0,0,61.54,0,137.19S61.54,274.38,137.19,274.38s137.19-61.54,137.19-137.19S212.84,0,137.19,0Zm0,254.38A117.19,117.19,0,1,1,254.38,137.19,117.32,117.32,0,0,1,137.19,254.38Z" fill="#fff"/></svg>